<svg xmlns="http://www.w3.org/2000/svg" version="1.1" xmlns:xlink="http://www.w3.org/1999/xlink" xmlns:svgjs="http://svgjs.dev/svgjs" viewBox="0 0 800 800"><defs><linearGradient x1="50%" y1="0%" x2="50%" y2="100%" id="ffflurry-grad" gradientTransform="rotate(270)"><stop stop-color="rgb(9, 6, 27)" stop-opacity="1" offset="0%"></stop><stop stop-color="rgb(255, 129, 72)" stop-opacity="1" offset="45%"></stop><stop stop-color="rgb(240, 53, 118)" stop-opacity="1" offset="100%"></stop></linearGradient></defs><rect width="100%" height="100%" fill="#09061b"></rect><g fill="url(#ffflurry-grad)"><rect width="86" height="3" x="725" y="387.5" rx="1.5" transform="rotate(305, 768, 389)" opacity="0.50"></rect><rect width="210" height="3" x="272" y="69.5" rx="1.5" transform="rotate(305, 377, 71)" opacity="0.58"></rect><rect width="192" height="3" x="336" y="30.5" rx="1.5" transform="rotate(305, 432, 32)" opacity="0.86"></rect><rect width="165" height="3" x="552.5" y="770.5" rx="1.5" transform="rotate(305, 635, 772)" opacity="0.75"></rect><rect width="305" height="3" x="-51.5" y="540.5" rx="1.5" transform="rotate(305, 101, 542)" opacity="0.72"></rect><rect width="354" height="3" x="482" y="437.5" rx="1.5" transform="rotate(305, 659, 439)" opacity="0.32"></rect><rect width="97" height="3" x="663.5" y="768.5" rx="1.5" transform="rotate(305, 712, 770)" opacity="0.73"></rect><rect width="508" height="3" x="-188" y="201.5" rx="1.5" transform="rotate(305, 66, 203)" opacity="0.74"></rect><rect width="650" height="3" x="355" y="281.5" rx="1.5" transform="rotate(305, 680, 283)" opacity="0.28"></rect><rect width="119" height="3" x="-33.5" y="451.5" rx="1.5" transform="rotate(305, 26, 453)" opacity="0.26"></rect><rect width="140" height="3" x="339" y="193.5" rx="1.5" transform="rotate(305, 409, 195)" opacity="0.88"></rect><rect width="131" height="3" x="-40.5" y="38.5" rx="1.5" transform="rotate(305, 25, 40)" opacity="0.32"></rect><rect width="409" height="3" x="162.5" y="462.5" rx="1.5" transform="rotate(305, 367, 464)" opacity="0.55"></rect><rect width="283" height="3" x="23.5" y="81.5" rx="1.5" transform="rotate(305, 165, 83)" opacity="0.39"></rect><rect width="368" height="3" x="165" y="200.5" rx="1.5" transform="rotate(305, 349, 202)" opacity="0.08"></rect><rect width="199" height="3" x="265.5" y="675.5" rx="1.5" transform="rotate(305, 365, 677)" opacity="0.24"></rect><rect width="262" height="3" x="245" y="15.5" rx="1.5" transform="rotate(305, 376, 17)" opacity="0.14"></rect><rect width="168" height="3" x="403" y="149.5" rx="1.5" transform="rotate(305, 487, 151)" opacity="0.84"></rect><rect width="371" height="3" x="433.5" y="705.5" rx="1.5" transform="rotate(305, 619, 707)" opacity="0.33"></rect><rect width="253" height="3" x="286.5" y="284.5" rx="1.5" transform="rotate(305, 413, 286)" opacity="0.70"></rect><rect width="319" height="3" x="58.5" y="411.5" rx="1.5" transform="rotate(305, 218, 413)" opacity="0.75"></rect><rect width="548" height="3" x="22" y="389.5" rx="1.5" transform="rotate(305, 296, 391)" opacity="0.63"></rect><rect width="342" height="3" x="588" y="250.5" rx="1.5" transform="rotate(305, 759, 252)" opacity="0.92"></rect><rect width="58" height="3" x="239" y="69.5" rx="1.5" transform="rotate(305, 268, 71)" opacity="0.93"></rect><rect width="291" height="3" x="425.5" y="185.5" rx="1.5" transform="rotate(305, 571, 187)" opacity="0.28"></rect><rect width="377" height="3" x="-89.5" y="426.5" rx="1.5" transform="rotate(305, 99, 428)" opacity="0.33"></rect><rect width="192" height="3" x="17" y="350.5" rx="1.5" transform="rotate(305, 113, 352)" opacity="0.33"></rect><rect width="185" height="3" x="390.5" y="110.5" rx="1.5" transform="rotate(305, 483, 112)" opacity="0.24"></rect><rect width="170" height="3" x="566" y="570.5" rx="1.5" transform="rotate(305, 651, 572)" opacity="0.08"></rect><rect width="106" height="3" x="371" y="657.5" rx="1.5" transform="rotate(305, 424, 659)" opacity="0.93"></rect><rect width="254" height="3" x="175" y="680.5" rx="1.5" transform="rotate(305, 302, 682)" opacity="0.20"></rect><rect width="407" height="3" x="314.5" y="591.5" rx="1.5" transform="rotate(305, 518, 593)" opacity="0.98"></rect><rect width="561" height="3" x="-128.5" y="627.5" rx="1.5" transform="rotate(305, 152, 629)" opacity="0.88"></rect><rect width="571" height="3" x="260.5" y="103.5" rx="1.5" transform="rotate(305, 546, 105)" opacity="0.76"></rect><rect width="186" height="3" x="46" y="569.5" rx="1.5" transform="rotate(305, 139, 571)" opacity="0.28"></rect><rect width="397" height="3" x="86.5" y="196.5" rx="1.5" transform="rotate(305, 285, 198)" opacity="0.64"></rect><rect width="221" height="3" x="349.5" y="235.5" rx="1.5" transform="rotate(305, 460, 237)" opacity="0.53"></rect><rect width="177" height="3" x="149.5" y="736.5" rx="1.5" transform="rotate(305, 238, 738)" opacity="0.57"></rect><rect width="246" height="3" x="324" y="477.5" rx="1.5" transform="rotate(305, 447, 479)" opacity="0.27"></rect><rect width="431" height="3" x="424.5" y="506.5" rx="1.5" transform="rotate(305, 640, 508)" opacity="0.77"></rect><rect width="146" height="3" x="-61" y="387.5" rx="1.5" transform="rotate(305, 12, 389)" opacity="0.53"></rect><rect width="628" height="3" x="-271" y="728.5" rx="1.5" transform="rotate(305, 43, 730)" opacity="0.98"></rect><rect width="127" height="3" x="279.5" y="48.5" rx="1.5" transform="rotate(305, 343, 50)" opacity="0.64"></rect><rect width="35" height="3" x="11.5" y="577.5" rx="1.5" transform="rotate(305, 29, 579)" opacity="0.22"></rect><rect width="358" height="3" x="321" y="401.5" rx="1.5" transform="rotate(305, 500, 403)" opacity="0.42"></rect><rect width="610" height="3" x="142" y="581.5" rx="1.5" transform="rotate(305, 447, 583)" opacity="0.16"></rect><rect width="331" height="3" x="311.5" y="65.5" rx="1.5" transform="rotate(305, 477, 67)" opacity="0.41"></rect><rect width="491" height="3" x="80.5" y="562.5" rx="1.5" transform="rotate(305, 326, 564)" opacity="0.71"></rect><rect width="140" height="3" x="491" y="700.5" rx="1.5" transform="rotate(305, 561, 702)" opacity="0.14"></rect><rect width="124" height="3" x="13" y="626.5" rx="1.5" transform="rotate(305, 75, 628)" opacity="0.59"></rect><rect width="293" height="3" x="36.5" y="315.5" rx="1.5" transform="rotate(305, 183, 317)" opacity="0.16"></rect><rect width="200" height="3" x="380" y="308.5" rx="1.5" transform="rotate(305, 480, 310)" opacity="0.31"></rect><rect width="78" height="3" x="552" y="272.5" rx="1.5" transform="rotate(305, 591, 274)" opacity="0.07"></rect><rect width="184" height="3" x="680" y="755.5" rx="1.5" transform="rotate(305, 772, 757)" opacity="0.71"></rect><rect width="74" height="3" x="730" y="162.5" rx="1.5" transform="rotate(305, 767, 164)" opacity="0.21"></rect><rect width="519" height="3" x="-115.5" y="767.5" rx="1.5" transform="rotate(305, 144, 769)" opacity="0.48"></rect><rect width="124" height="3" x="306" y="329.5" rx="1.5" transform="rotate(305, 368, 331)" opacity="0.66"></rect><rect width="74" height="3" x="728" y="457.5" rx="1.5" transform="rotate(305, 765, 459)" opacity="0.42"></rect><rect width="51" height="3" x="568.5" y="361.5" rx="1.5" transform="rotate(305, 594, 363)" opacity="0.77"></rect><rect width="530" height="3" x="296" y="765.5" rx="1.5" transform="rotate(305, 561, 767)" opacity="0.49"></rect><rect width="337" height="3" x="344.5" y="24.5" rx="1.5" transform="rotate(305, 513, 26)" opacity="0.93"></rect><rect width="297" height="3" x="98.5" y="338.5" rx="1.5" transform="rotate(305, 247, 340)" opacity="0.85"></rect><rect width="373" height="3" x="196.5" y="151.5" rx="1.5" transform="rotate(305, 383, 153)" opacity="0.86"></rect><rect width="221" height="3" x="197.5" y="106.5" rx="1.5" transform="rotate(305, 308, 108)" opacity="0.97"></rect><rect width="175" height="3" x="94.5" y="200.5" rx="1.5" transform="rotate(305, 182, 202)" opacity="0.35"></rect><rect width="109" height="3" x="151.5" y="74.5" rx="1.5" transform="rotate(305, 206, 76)" opacity="0.61"></rect><rect width="38" height="3" x="233" y="452.5" rx="1.5" transform="rotate(305, 252, 454)" opacity="0.22"></rect><rect width="134" height="3" x="578" y="648.5" rx="1.5" transform="rotate(305, 645, 650)" opacity="0.63"></rect><rect width="559" height="3" x="248.5" y="323.5" rx="1.5" transform="rotate(305, 528, 325)" opacity="0.09"></rect><rect width="130" height="3" x="334" y="246.5" rx="1.5" transform="rotate(305, 399, 248)" opacity="0.99"></rect><rect width="443" height="3" x="135.5" y="616.5" rx="1.5" transform="rotate(305, 357, 618)" opacity="0.80"></rect><rect width="343" height="3" x="592.5" y="599.5" rx="1.5" transform="rotate(305, 764, 601)" opacity="0.14"></rect><rect width="249" height="3" x="397.5" y="664.5" rx="1.5" transform="rotate(305, 522, 666)" opacity="0.69"></rect><rect width="119" height="3" x="446.5" y="193.5" rx="1.5" transform="rotate(305, 506, 195)" opacity="0.61"></rect><rect width="49" height="3" x="212.5" y="80.5" rx="1.5" transform="rotate(305, 237, 82)" opacity="0.80"></rect><rect width="579" height="3" x="125.5" y="102.5" rx="1.5" transform="rotate(305, 415, 104)" opacity="0.38"></rect><rect width="434" height="3" x="482" y="614.5" rx="1.5" transform="rotate(305, 699, 616)" opacity="0.62"></rect><rect width="172" height="3" x="471" y="407.5" rx="1.5" transform="rotate(305, 557, 409)" opacity="0.52"></rect><rect width="219" height="3" x="328.5" y="316.5" rx="1.5" transform="rotate(305, 438, 318)" opacity="0.59"></rect><rect width="178" height="3" x="166" y="560.5" rx="1.5" transform="rotate(305, 255, 562)" opacity="0.39"></rect><rect width="228" height="3" x="197" y="15.5" rx="1.5" transform="rotate(305, 311, 17)" opacity="0.95"></rect><rect width="108" height="3" x="238" y="765.5" rx="1.5" transform="rotate(305, 292, 767)" opacity="0.97"></rect><rect width="316" height="3" x="182" y="135.5" rx="1.5" transform="rotate(305, 340, 137)" opacity="0.84"></rect><rect width="437" height="3" x="356.5" y="628.5" rx="1.5" transform="rotate(305, 575, 630)" opacity="0.24"></rect><rect width="199" height="3" x="-44.5" y="329.5" rx="1.5" transform="rotate(305, 55, 331)" opacity="0.16"></rect><rect width="127" height="3" x="636.5" y="186.5" rx="1.5" transform="rotate(305, 700, 188)" opacity="0.84"></rect><rect width="385" height="3" x="-157.5" y="270.5" rx="1.5" transform="rotate(305, 35, 272)" opacity="0.62"></rect><rect width="520" height="3" x="341" y="29.5" rx="1.5" transform="rotate(305, 601, 31)" opacity="0.91"></rect><rect width="142" height="3" x="61" y="261.5" rx="1.5" transform="rotate(305, 132, 263)" opacity="0.31"></rect><rect width="141" height="3" x="156.5" y="687.5" rx="1.5" transform="rotate(305, 227, 689)" opacity="0.75"></rect><rect width="125" height="3" x="424.5" y="753.5" rx="1.5" transform="rotate(305, 487, 755)" opacity="0.72"></rect><rect width="397" height="3" x="31.5" y="504.5" rx="1.5" transform="rotate(305, 230, 506)" opacity="0.16"></rect><rect width="179" height="3" x="411.5" y="536.5" rx="1.5" transform="rotate(305, 501, 538)" opacity="0.75"></rect><rect width="171" height="3" x="357.5" y="164.5" rx="1.5" transform="rotate(305, 443, 166)" opacity="0.83"></rect><rect width="180" height="3" x="302" y="520.5" rx="1.5" transform="rotate(305, 392, 522)" opacity="0.19"></rect><rect width="429" height="3" x="-26.5" y="127.5" rx="1.5" transform="rotate(305, 188, 129)" opacity="0.88"></rect><rect width="251" height="3" x="-7.5" y="63.5" rx="1.5" transform="rotate(305, 118, 65)" opacity="0.98"></rect><rect width="418" height="3" x="534" y="91.5" rx="1.5" transform="rotate(305, 743, 93)" opacity="0.51"></rect><rect width="523" height="3" x="-18.5" y="254.5" rx="1.5" transform="rotate(305, 243, 256)" opacity="0.92"></rect><rect width="422" height="3" x="134" y="254.5" rx="1.5" transform="rotate(305, 345, 256)" opacity="0.63"></rect><rect width="315" height="3" x="147.5" y="512.5" rx="1.5" transform="rotate(305, 305, 514)" opacity="0.75"></rect><rect width="223" height="3" x="570.5" y="716.5" rx="1.5" transform="rotate(305, 682, 718)" opacity="0.72"></rect><rect width="104" height="3" x="666" y="30.5" rx="1.5" transform="rotate(305, 718, 32)" opacity="0.86"></rect><rect width="298" height="3" x="267" y="747.5" rx="1.5" transform="rotate(305, 416, 749)" opacity="0.76"></rect><rect width="468" height="3" x="-71" y="512.5" rx="1.5" transform="rotate(305, 163, 514)" opacity="0.16"></rect><rect width="288" height="3" x="205" y="753.5" rx="1.5" transform="rotate(305, 349, 755)" opacity="0.40"></rect><rect width="49" height="3" x="279.5" y="57.5" rx="1.5" transform="rotate(305, 304, 59)" opacity="0.76"></rect><rect width="207" height="3" x="425.5" y="480.5" rx="1.5" transform="rotate(305, 529, 482)" opacity="0.87"></rect><rect width="293" height="3" x="17.5" y="388.5" rx="1.5" transform="rotate(305, 164, 390)" opacity="0.47"></rect><rect width="59" height="3" x="188.5" y="630.5" rx="1.5" transform="rotate(305, 218, 632)" opacity="0.49"></rect><rect width="220" height="3" x="277" y="575.5" rx="1.5" transform="rotate(305, 387, 577)" opacity="0.84"></rect><rect width="103" height="3" x="314.5" y="394.5" rx="1.5" transform="rotate(305, 366, 396)" opacity="0.12"></rect><rect width="257" height="3" x="-77.5" y="394.5" rx="1.5" transform="rotate(305, 51, 396)" opacity="0.08"></rect><rect width="499" height="3" x="56.5" y="300.5" rx="1.5" transform="rotate(305, 306, 302)" opacity="0.93"></rect><rect width="276" height="3" x="-16" y="141.5" rx="1.5" transform="rotate(305, 122, 143)" opacity="0.37"></rect><rect width="471" height="3" x="-63.5" y="460.5" rx="1.5" transform="rotate(305, 172, 462)" opacity="0.73"></rect><rect width="186" height="3" x="544" y="204.5" rx="1.5" transform="rotate(305, 637, 206)" opacity="0.67"></rect><rect width="214" height="3" x="90" y="568.5" rx="1.5" transform="rotate(305, 197, 570)" opacity="0.71"></rect><rect width="331" height="3" x="462.5" y="105.5" rx="1.5" transform="rotate(305, 628, 107)" opacity="0.09"></rect><rect width="523" height="3" x="-158.5" y="484.5" rx="1.5" transform="rotate(305, 103, 486)" opacity="0.60"></rect><rect width="433" height="3" x="259.5" y="664.5" rx="1.5" transform="rotate(305, 476, 666)" opacity="0.54"></rect><rect width="558" height="3" x="462" y="522.5" rx="1.5" transform="rotate(305, 741, 524)" opacity="0.14"></rect><rect width="157" height="3" x="358.5" y="388.5" rx="1.5" transform="rotate(305, 437, 390)" opacity="0.97"></rect><rect width="154" height="3" x="-3" y="51.5" rx="1.5" transform="rotate(305, 74, 53)" opacity="0.63"></rect><rect width="215" height="3" x="140.5" y="145.5" rx="1.5" transform="rotate(305, 248, 147)" opacity="0.76"></rect><rect width="203" height="3" x="-67.5" y="133.5" rx="1.5" transform="rotate(305, 34, 135)" opacity="0.54"></rect><rect width="28" height="3" x="291" y="454.5" rx="1.5" transform="rotate(305, 305, 456)" opacity="0.65"></rect><rect width="163" height="3" x="205.5" y="615.5" rx="1.5" transform="rotate(305, 287, 617)" opacity="0.83"></rect><rect width="279" height="3" x="28.5" y="37.5" rx="1.5" transform="rotate(305, 168, 39)" opacity="0.20"></rect><rect width="273" height="3" x="623.5" y="322.5" rx="1.5" transform="rotate(305, 760, 324)" opacity="0.24"></rect><rect width="354" height="3" x="-137" y="500.5" rx="1.5" transform="rotate(305, 40, 502)" opacity="0.18"></rect><rect width="549" height="3" x="-140.5" y="701.5" rx="1.5" transform="rotate(305, 134, 703)" opacity="0.77"></rect><rect width="318" height="3" x="526" y="357.5" rx="1.5" transform="rotate(305, 685, 359)" opacity="0.71"></rect><rect width="624" height="3" x="440" y="680.5" rx="1.5" transform="rotate(305, 752, 682)" opacity="0.20"></rect><rect width="36" height="3" x="609" y="317.5" rx="1.5" transform="rotate(305, 627, 319)" opacity="0.69"></rect><rect width="151" height="3" x="522.5" y="448.5" rx="1.5" transform="rotate(305, 598, 450)" opacity="0.96"></rect><rect width="344" height="3" x="95" y="18.5" rx="1.5" transform="rotate(305, 267, 20)" opacity="0.44"></rect><rect width="439" height="3" x="360.5" y="553.5" rx="1.5" transform="rotate(305, 580, 555)" opacity="0.67"></rect><rect width="292" height="3" x="386" y="254.5" rx="1.5" transform="rotate(305, 532, 256)" opacity="0.74"></rect><rect width="178" height="3" x="621" y="421.5" rx="1.5" transform="rotate(305, 710, 423)" opacity="0.52"></rect><rect width="241" height="3" x="102.5" y="22.5" rx="1.5" transform="rotate(305, 223, 24)" opacity="0.09"></rect><rect width="80" height="3" x="111" y="9.5" rx="1.5" transform="rotate(305, 151, 11)" opacity="0.53"></rect><rect width="133" height="3" x="154.5" y="778.5" rx="1.5" transform="rotate(305, 221, 780)" opacity="0.39"></rect></g></svg>